<svg width="103" height="97" viewBox="0 0 103 97" fill="none" xmlns="http://www.w3.org/2000/svg">
<path d="M49.9997 33.6099C50.6496 33.2023 51.4753 33.2023 52.1252 33.6099L99.4237 63.2775C100.673 64.0614 100.673 65.8822 99.4237 66.6661L52.1252 96.3336C51.4753 96.7412 50.6496 96.7412 49.9997 96.3336L2.70118 66.6661C1.45148 65.8822 1.45148 64.0614 2.70118 63.2775L49.9997 33.6099Z" fill="#5FBE7F"/>
<path d="M49.9905 33.2581C50.6446 32.843 51.4795 32.843 52.1336 33.2581L93.9726 59.8065C95.2105 60.592 95.2105 62.3984 93.9726 63.1839L52.1336 89.7323C51.4795 90.1474 50.6446 90.1474 49.9905 89.7323L8.15156 63.1839C6.91364 62.3984 6.91364 60.592 8.15157 59.8065L49.9905 33.2581Z" fill="#379B60"/>
<path d="M49.991 17.5176C50.645 17.1027 51.4798 17.1027 52.1338 17.5176L99.4628 47.5435C100.701 48.329 100.701 50.1357 99.4628 50.9212L52.1338 80.9471C51.4798 81.362 50.645 81.362 49.991 80.9471L2.66204 50.9212C1.4239 50.1357 1.4239 48.329 2.66203 47.5435L49.991 17.5176Z" fill="#3B4B59"/>
<path d="M49.9907 17.5159C50.6441 17.1019 51.4777 17.1019 52.1312 17.5159L94.3317 44.2485C95.5713 45.0337 95.5713 46.8423 94.3317 47.6275L52.1312 74.3601C51.4777 74.7741 50.6441 74.7741 49.9907 74.3601L7.79018 47.6275C6.55053 46.8423 6.55053 45.0337 7.79018 44.2485L49.9907 17.5159Z" fill="#353D46"/>
<path d="M49.991 0.679707C50.645 0.264796 51.4798 0.264794 52.1338 0.679706L99.4628 30.7056C100.701 31.4911 100.701 33.2978 99.4628 34.0833L52.1338 64.1092C51.4798 64.5241 50.645 64.5241 49.991 64.1092L2.66204 34.0833C1.4239 33.2978 1.4239 31.4911 2.66203 30.7056L49.991 0.679707Z" fill="#3AA867"/>
</svg>
